<svg xmlns="http://www.w3.org/2000/svg"  viewBox="0 0 64 64" width="128px" height="128px"><radialGradient id="eFD8bSFzUnYK3MoWZEJeta" cx="32" cy="33.5" r="31.751" gradientTransform="matrix(1 0 0 -1 0 66)" gradientUnits="userSpaceOnUse"><stop offset="0" stop-color="#eed7a2"/><stop offset=".106" stop-color="#f1dcab"/><stop offset=".437" stop-color="#f8e8c3"/><stop offset=".744" stop-color="#fcefd2"/><stop offset="1" stop-color="#fef2d7"/></radialGradient><path fill="url(#eFD8bSFzUnYK3MoWZEJeta)" d="M60,25c2.331,0,4.221-2.031,3.98-4.412C63.769,18.513,61.896,17,59.81,17h-0.7	c-0.58,0-1.14,0.11-1.53,0H57.5c-0.83,0-1.5-0.67-1.5-1.5s0.67-1.5,1.5-1.5h1.86c1.311,0,2.506-0.946,2.631-2.251	C62.134,10.254,60.966,9,59.5,9h-12C46.67,9,46,8.33,46,7.5S46.67,6,47.5,6h0.86c1.311,0,2.506-0.946,2.631-2.251	C51.134,2.254,49.966,1,48.5,1H16.64c-1.311,0-2.506,0.946-2.631,2.251C13.866,4.746,15.034,6,16.5,6h3.39	c0.999,0,1.923,0.685,2.082,1.671C22.174,8.926,21.216,10,20,10H5.19c-2.086,0-3.96,1.513-4.17,3.589C0.779,15.969,2.66,18,5,18h0.3	c1.9,0,3.6,1.42,3.69,3.31C9.1,23.33,7.49,25,5.5,25H4.19c-2.086,0-3.96,1.513-4.17,3.589C-0.221,30.969,1.66,33,4,33h19v22H5.685	c-2.352,0-4.448,1.725-4.665,4.067C0.771,61.753,2.867,64,5.5,64h48.9c1.67,0,3.19-1.129,3.525-2.765	C58.385,58.985,56.67,57,54.5,57H48v-0.05c-0.49-0.1-0.93-0.34-1.27-0.68c-0.417-0.417-0.688-0.988-0.725-1.619	C45.918,53.196,47.197,52,48.655,52h8.387c2.858,0,4.728-1.512,4.938-3.587C62.221,46.032,60.331,44,58,44H43v-4h14v-6h-4.5	c-2.485,0-4.5-2.015-4.5-4.5l0,0c0-2.485,2.015-4.5,4.5-4.5H60z"/><linearGradient id="eFD8bSFzUnYK3MoWZEJetb" x1="42.583" x2="42.583" y1="18.416" y2="59.684" gradientTransform="matrix(1 0 0 -1 0 66)" gradientUnits="userSpaceOnUse"><stop offset="0" stop-color="#feaa53"/><stop offset=".612" stop-color="#ffcd49"/><stop offset="1" stop-color="#ffde44"/></linearGradient><path fill="url(#eFD8bSFzUnYK3MoWZEJetb)" d="M61.86,36.04c-0.56,0.9-1.18,1.75-1.86,2.55c-4.03,4.75-10.14,7.68-16.93,7.39	c-6.23-0.27-11.82-3.34-15.51-7.98c-2.55-3.2-4.19-7.16-4.5-11.45c-0.75-10.4,6.08-19.34,15.53-21.84c1.53-0.4,2.94,1.04,2.43,2.54	c-0.69,2.04-1.05,4.23-1.02,6.5c0.05,4.18,1.47,8.08,3.82,11.25c3.48,4.71,9.01,7.84,15.19,7.99c0.38,0.01,0.76,0.01,1.13,0	C61.71,32.94,62.69,34.7,61.86,36.04z"/><linearGradient id="eFD8bSFzUnYK3MoWZEJetc" x1="45.449" x2="41.337" y1="15.513" y2="113.579" gradientTransform="matrix(1 0 0 -1 0 66)" gradientUnits="userSpaceOnUse"><stop offset="0" stop-color="#feaa53"/><stop offset=".612" stop-color="#ffcd49"/><stop offset="1" stop-color="#ffde44"/></linearGradient><path fill="url(#eFD8bSFzUnYK3MoWZEJetc)" d="M61.86,36.04c-0.56,0.9-1.18,1.75-1.86,2.55c-4.03,4.75-10.14,7.68-16.93,7.39	c-6.23-0.27-11.82-3.34-15.51-7.98H46c0.83,0,1.58-0.34,2.12-0.88C48.66,36.58,49,35.83,49,35c0-1.66-1.34-3-3-3h-2.5	c-2,0-3.6-1.67-3.5-3.69c0.1-1.89,1.8-3.31,3.69-3.31h0.13c3.48,4.71,9.01,7.84,15.19,7.99c0.38,0.01,0.76,0.01,1.13,0	C61.71,32.94,62.69,34.7,61.86,36.04z"/><linearGradient id="eFD8bSFzUnYK3MoWZEJetd" x1="25" x2="25" y1="6.106" y2="38.106" gradientTransform="matrix(1 0 0 -1 0 66)" gradientUnits="userSpaceOnUse"><stop offset="0" stop-color="#1ba7dd"/><stop offset=".376" stop-color="#2ec1e8"/><stop offset=".741" stop-color="#3bd3ef"/><stop offset="1" stop-color="#40daf2"/></linearGradient><path fill="url(#eFD8bSFzUnYK3MoWZEJetd)" d="M48,48c0,4.97-4.03,9-9,9H11v-0.03c-5.01-0.26-9-4.39-9-9.47c0-0.87,0.12-1.71,0.34-2.51	c0.91-3.36,3.62-5.96,7.04-6.74C9.14,37.37,9,36.45,9,35.5c0-5.37,4.03-9.8,9.23-10.42C18.64,25.03,19.07,25,19.5,25	c3.73,0,7,1.95,8.86,4.88C29.45,29.32,30.69,29,32,29c4.42,0,8,3.58,8,8c0,0.34-0.02,0.68-0.07,1c-0.04,0.36-0.11,0.7-0.2,1.04	C44.36,39.41,48,43.28,48,48z"/><linearGradient id="eFD8bSFzUnYK3MoWZEJete" x1="55.5" x2="55.5" y1="38.015" y2="44.999" gradientTransform="matrix(1 0 0 -1 0 66)" gradientUnits="userSpaceOnUse"><stop offset="0" stop-color="#feaa53"/><stop offset=".612" stop-color="#ffcd49"/><stop offset="1" stop-color="#ffde44"/></linearGradient><path fill="url(#eFD8bSFzUnYK3MoWZEJete)" d="M55.965,21.07l0.491,1.577C56.522,22.858,56.709,23,56.921,23h1.589	c0.474,0,0.671,0.633,0.287,0.923l-1.285,0.975c-0.171,0.13-0.243,0.36-0.178,0.571l0.491,1.577c0.146,0.47-0.369,0.861-0.753,0.571	l-1.285-0.975c-0.171-0.13-0.403-0.13-0.575,0l-1.285,0.975c-0.383,0.291-0.899-0.1-0.753-0.571l0.491-1.577	c0.065-0.21-0.006-0.441-0.178-0.571l-1.285-0.975C51.819,23.633,52.016,23,52.49,23h1.589c0.212,0,0.4-0.142,0.465-0.353	l0.491-1.577C55.181,20.6,55.819,20.6,55.965,21.07z"/><linearGradient id="eFD8bSFzUnYK3MoWZEJetf" x1="14.499" x2="14.499" y1="44.655" y2="53.636" gradientTransform="matrix(1 0 0 -1 0 66)" gradientUnits="userSpaceOnUse"><stop offset="0" stop-color="#feaa53"/><stop offset=".612" stop-color="#ffcd49"/><stop offset="1" stop-color="#ffde44"/></linearGradient><path fill="url(#eFD8bSFzUnYK3MoWZEJetf)" d="M15.098,12.454l0.631,2.028c0.084,0.27,0.326,0.454,0.598,0.454h2.043	c0.609,0,0.862,0.814,0.37,1.187l-1.653,1.253c-0.22,0.167-0.313,0.463-0.228,0.734l0.631,2.028	c0.188,0.605-0.475,1.108-0.968,0.734l-1.653-1.253c-0.22-0.167-0.519-0.167-0.739,0l-1.653,1.253	c-0.493,0.374-1.156-0.129-0.968-0.734l0.631-2.028c0.084-0.27-0.008-0.567-0.228-0.734l-1.653-1.253	c-0.493-0.374-0.24-1.187,0.37-1.187h2.043c0.272,0,0.514-0.183,0.598-0.454l0.631-2.028C14.09,11.849,14.91,11.849,15.098,12.454z"/><linearGradient id="eFD8bSFzUnYK3MoWZEJetg" x1="13.172" x2="13.172" y1="8.404" y2="40.066" gradientTransform="matrix(1 0 0 -1 0 66)" gradientUnits="userSpaceOnUse"><stop offset="0" stop-color="#44c9ea"/><stop offset="1" stop-color="#53def3"/></linearGradient><path fill="url(#eFD8bSFzUnYK3MoWZEJetg)" d="M24,41.31c0.1,2.02-1.5,3.69-3.5,3.69h-18c-0.05,0-0.11,0-0.16-0.01	c0.91-3.36,3.62-5.96,7.04-6.74C9.14,37.37,9,36.45,9,35.5c0-5.37,4.03-9.8,9.23-10.42c1.64,0.34,2.86,1.84,2.77,3.61	C20.9,30.58,19.2,32,17.3,32H17c-0.83,0-1.58,0.34-2.12,0.88C14.34,33.42,14,34.17,14,35c0,1.66,1.34,3,3,3h3.3	C22.2,38,23.9,39.42,24,41.31z"/><linearGradient id="eFD8bSFzUnYK3MoWZEJeth" x1="38.499" x2="38.499" y1="8.064" y2="28.874" gradientTransform="matrix(1 0 0 -1 0 66)" gradientUnits="userSpaceOnUse"><stop offset="0" stop-color="#1ba7dd"/><stop offset="1" stop-color="#33c7eb"/></linearGradient><path fill="url(#eFD8bSFzUnYK3MoWZEJeth)" d="M47.959,48.868C47.522,53.534,43.407,57,38.72,57h-6.556c-1.626,0-3.079-1.221-3.161-2.844	C28.917,52.425,30.288,51,32,51h6c1.657,0,3-1.343,3-3l0,0c0-1.657-1.343-3-3-3h-0.4c-1.67,0-3.19-1.129-3.525-2.765	C33.615,39.985,35.33,38,37.5,38h2.43c-0.04,0.36-0.11,0.7-0.2,1.04C44.641,39.432,48.438,43.762,47.959,48.868z"/></svg>