<svg xmlns="http://www.w3.org/2000/svg"  viewBox="0 0 64 64" width="128px" height="128px"><radialGradient id="aHLn90AMfSzA1BmqRRAL8a" cx="31" cy="34.5" r="30.759" gradientTransform="matrix(1 0 0 -1 0 66)" gradientUnits="userSpaceOnUse"><stop offset="0" stop-color="#ecd5a0"/><stop offset=".106" stop-color="#efdaa9"/><stop offset=".437" stop-color="#f6e6c1"/><stop offset=".744" stop-color="#faedd0"/><stop offset="1" stop-color="#fdf0d5"/></radialGradient><path fill="url(#aHLn90AMfSzA1BmqRRAL8a)" d="M60.98,20.59C61.22,22.97,59.33,25,57,25h-8.84c-1.62,0-3.07,1.22-3.16,2.84	C44.92,29.58,46.29,31,48,31l0,0c2.33,0,4.22,2.03,3.98,4.41C51.77,37.49,49.9,39,47.81,39H42.5c-2.14,0-3.83,1.92-3.44,4.13	C39.35,44.84,40.97,46,42.7,46H55c2.33,0,4.22,2.03,3.98,4.41C58.77,52.49,56.9,54,54.81,54H53c-1.27,0-2.27,1.18-1.93,2.51	c0.23,0.9,1.11,1.49,2.04,1.49h1.39c1.47,0,2.63,1.25,2.49,2.75c-0.12,1.3-1.32,2.25-2.63,2.25H9.5c-1.47,0-2.63-1.25-2.49-2.75	C7.13,58.95,8.33,58,9.64,58h0.86c0.83,0,1.5-0.67,1.5-1.5S11.33,55,10.5,55h-6c-1.47,0-2.63-1.25-2.49-2.75	C2.13,50.95,3.33,50,4.64,50H5c1.21,0,2.17-1.08,1.97-2.33C6.82,46.68,5.89,46,4.89,46H4.5c-2.17,0-3.89-1.98-3.42-4.23	C1.41,40.13,2.93,39,4.6,39H20V17H5c-2.33,0-4.22-2.03-3.98-4.41C1.23,10.51,3.1,9,5.19,9H21c1.46,0,2.55-1.55,1.71-3.09	C22.4,5.34,21.78,5,21.13,5H13.5c-1.47,0-2.63-1.25-2.49-2.75C11.13,0.95,12.33,0,13.64,0H44.5c1.47,0,2.63,1.25,2.49,2.75	C46.87,4.05,45.67,5,44.36,5H43.5C42.67,5,42,5.67,42,6.5S42.67,8,43.5,8h9c1.47,0,2.63,1.25,2.49,2.75	c-0.12,1.3-1.32,2.25-2.63,2.25H52c-1.27,0-2.27,1.18-1.93,2.51c0.23,0.9,1.11,1.49,2.04,1.49h4.7C58.9,17,60.77,18.51,60.98,20.59z"/><linearGradient id="aHLn90AMfSzA1BmqRRAL8b" x1="22" x2="22" y1="16.226" y2="61.079" gradientTransform="matrix(1 0 0 -1 0 66)" gradientUnits="userSpaceOnUse"><stop offset="0" stop-color="#ff9757"/><stop offset="1" stop-color="#ffb65b"/><stop offset="1" stop-color="#ffb65b"/></linearGradient><polygon fill="url(#aHLn90AMfSzA1BmqRRAL8b)" points="36,30.799 41.799,25 36,19.201 36,11 27.799,11 22,5.201 16.201,11 8,11 8,19.201 2.201,25 8,30.799 8,39 16.201,39 22,44.799 27.799,39 36,39"/><linearGradient id="aHLn90AMfSzA1BmqRRAL8c" x1="22" x2="22" y1="10648.444" y2="10624.444" gradientTransform="translate(0 -10606)" gradientUnits="userSpaceOnUse"><stop offset="0" stop-color="#feaa53"/><stop offset=".612" stop-color="#ffcd49"/><stop offset="1" stop-color="#ffde44"/></linearGradient><path fill="url(#aHLn90AMfSzA1BmqRRAL8c)" d="M9.775,25c0,6.63,5.47,12,12.225,12c6.75,0,12.225-5.37,12.225-12S28.75,13,22,13	C15.245,13,9.775,18.37,9.775,25"/><linearGradient id="aHLn90AMfSzA1BmqRRAL8d" x1="37.081" x2="37.081" y1="10.165" y2="43.165" gradientTransform="matrix(1 0 0 -1 0 66)" gradientUnits="userSpaceOnUse"><stop offset="0" stop-color="#51c0e6"/><stop offset="1" stop-color="#66dff3"/></linearGradient><path fill="url(#aHLn90AMfSzA1BmqRRAL8d)" d="M61.162,46.635c0-4.762-3.556-8.684-8.156-9.278c0.079-0.464,0.129-0.938,0.129-1.424	c0-4.68-3.793-8.473-8.473-8.473c-1.602,0-3.095,0.453-4.373,1.226C38.491,25.304,34.935,23,30.838,23	c-5.911,0-10.703,4.792-10.703,10.703c0,1.023,0.152,2.009,0.42,2.947C16.226,37.669,13,41.548,13,46.189	C13,51.607,17.392,56,22.811,56c0.064,0,0.126-0.008,0.189-0.01V56h29v-0.01C57.078,55.881,61.162,51.739,61.162,46.635z"/><linearGradient id="aHLn90AMfSzA1BmqRRAL8e" x1="23.765" x2="23.765" y1="18.443" y2="41.611" gradientTransform="matrix(1 0 0 -1 0 66)" gradientUnits="userSpaceOnUse"><stop offset="0" stop-color="#5fd4ee"/><stop offset="1" stop-color="#74e2f4"/></linearGradient><path fill="url(#aHLn90AMfSzA1BmqRRAL8e)" d="M33.971,33.341C33.806,34.325,32.876,35,31.879,35H25c-1.105,0-2,0.895-2,2l0,0	c0,1.105,0.895,2,2,2h0.879c0.997,0,1.927,0.675,2.093,1.659C28.181,41.908,27.212,43,26,43H13.53c1.09-3.15,3.74-5.58,7.03-6.35	c-0.27-0.94-0.42-1.92-0.42-2.95c0-5.37,3.95-9.82,9.11-10.58c1.102,0.346,1.866,1.416,1.735,2.655	C30.849,27.066,29.672,28,28.374,28H26.5c-0.828,0-1.5,0.672-1.5,1.5l0,0c0,0.828,0.672,1.5,1.5,1.5H32	C33.212,31,34.181,32.092,33.971,33.341z"/><linearGradient id="aHLn90AMfSzA1BmqRRAL8f" x1="50.081" x2="50.081" y1="9.271" y2="40.776" gradientTransform="matrix(1 0 0 -1 0 66)" gradientUnits="userSpaceOnUse"><stop offset="0" stop-color="#4cbae3"/><stop offset="1" stop-color="#59d1ed"/></linearGradient><path fill="url(#aHLn90AMfSzA1BmqRRAL8f)" d="M61.16,46.64c0,5.1-4.08,9.24-9.16,9.35V56h-8.5c-1.47,0-2.64-1.26-2.49-2.76	c0.13-1.3,1.32-2.24,2.63-2.24H46c0.55,0,1.05-0.22,1.41-0.59C47.78,50.05,48,49.55,48,49c0-1.1-0.9-2-2-2h-5	c-1.21,0-2.18-1.08-1.97-2.34c0.16-0.98,1.08-1.66,2.08-1.66H49c0.55,0,1.05-0.22,1.41-0.59C50.78,42.05,51,41.55,51,41	c0-1.1-0.9-2-2-2h-1c-1.21,0-2.18-1.08-1.97-2.34c0.16-0.98,1.08-1.66,2.08-1.66h4.98c0.03,0.31,0.05,0.62,0.05,0.93	c0,0.49-0.06,0.96-0.13,1.43C57.61,37.95,61.16,41.87,61.16,46.64z"/></svg>